<?xml version="1.0" encoding="utf-8"?>
<!-- Generator: Adobe Illustrator 24.2.1, SVG Export Plug-In . SVG Version: 6.00 Build 0)  -->
<svg version="1.1" id="katman_1" xmlns="http://www.w3.org/2000/svg" xmlns:xlink="http://www.w3.org/1999/xlink" x="0px" y="0px"
	 viewBox="0 0 100 100" style="enable-background:new 0 0 100 100;" xml:space="preserve">
<style type="text/css">
	.st0{fill:#1A60F4;}
</style>
<path class="st0" d="M50,2.42C23.72,2.42,2.42,23.72,2.42,50c0,26.28,21.3,47.58,47.58,47.58c26.28,0,47.58-21.3,47.58-47.58
	C97.58,23.72,76.28,2.42,50,2.42z M35.38,55.68c0,3.89,0,9.96,0,12.83c0,4.97-3.21,4.98-7.56,4.98s-7.56-0.01-7.56-4.98
	c0-2.87,0-8.94,0-12.83s0-9.96,0-12.83c0-4.97,3.21-4.98,7.56-4.98s7.56,0.01,7.56,4.98C35.38,45.72,35.38,51.79,35.38,55.68z
	 M78.99,54.83c-0.61,4.23-3.67,4.37-3.67,4.37s2.77,0.8,0.88,5.75c-1.75,4.57-4.14,3.89-4.14,3.89c1.66,1.15,1.29,4.86-2.21,6.57
	c-3.5,1.71-24.37-0.08-27.77-2.85c-5.38-4.4-4.78-23.62-2.78-28.5c1.56-3.81,7.02-8.58,8.41-13.65c1.39-5.06-2.94-11.96-0.06-13.71
	c2.88-1.75,9.88-0.46,11.89,4.85c2.01,5.31-4.01,16.81-2.87,17.81c1.13,1,15.77-0.49,15.77-0.49s6.35-0.9,7.16,3.73
	c0.81,4.62-2.21,6.63-2.21,6.63S79.55,50.9,78.99,54.83z"/>
</svg>
